<svg width="20" height="20" viewBox="0 0 20 20" fill="none" xmlns="http://www.w3.org/2000/svg">
<path fill-rule="evenodd" clip-rule="evenodd" d="M3.33333 1.875C2.06833 1.875 1.04166 2.90167 1.04166 4.16667C1.04166 5.43167 2.06833 6.45833 3.33333 6.45833C4.59833 6.45833 5.625 5.43167 5.625 4.16667C5.625 2.90167 4.59833 1.875 3.33333 1.875ZM3.33333 3.125C3.90833 3.125 4.375 3.59167 4.375 4.16667C4.375 4.74167 3.90833 5.20833 3.33333 5.20833C2.75833 5.20833 2.29166 4.74167 2.29166 4.16667C2.29166 3.59167 2.75833 3.125 3.33333 3.125Z" fill="#0D9447"/>
<path fill-rule="evenodd" clip-rule="evenodd" d="M3.33333 13.5416C2.06833 13.5416 1.04166 14.5683 1.04166 15.8333C1.04166 17.0983 2.06833 18.125 3.33333 18.125C4.59833 18.125 5.625 17.0983 5.625 15.8333C5.625 14.5683 4.59833 13.5416 3.33333 13.5416ZM3.33333 14.7916C3.90833 14.7916 4.375 15.2583 4.375 15.8333C4.375 16.4083 3.90833 16.875 3.33333 16.875C2.75833 16.875 2.29166 16.4083 2.29166 15.8333C2.29166 15.2583 2.75833 14.7916 3.33333 14.7916Z" fill="#0D9447"/>
<path fill-rule="evenodd" clip-rule="evenodd" d="M10 1.875C8.735 1.875 7.70833 2.90167 7.70833 4.16667C7.70833 5.43167 8.735 6.45833 10 6.45833C11.265 6.45833 12.2917 5.43167 12.2917 4.16667C12.2917 2.90167 11.265 1.875 10 1.875ZM10 3.125C10.575 3.125 11.0417 3.59167 11.0417 4.16667C11.0417 4.74167 10.575 5.20833 10 5.20833C9.425 5.20833 8.95833 4.74167 8.95833 4.16667C8.95833 3.59167 9.425 3.125 10 3.125Z" fill="#0D9447"/>
<path fill-rule="evenodd" clip-rule="evenodd" d="M10 13.5416C8.735 13.5416 7.70833 14.5683 7.70833 15.8333C7.70833 17.0983 8.735 18.125 10 18.125C11.265 18.125 12.2917 17.0983 12.2917 15.8333C12.2917 14.5683 11.265 13.5416 10 13.5416ZM10 14.7916C10.575 14.7916 11.0417 15.2583 11.0417 15.8333C11.0417 16.4083 10.575 16.875 10 16.875C9.425 16.875 8.95833 16.4083 8.95833 15.8333C8.95833 15.2583 9.425 14.7916 10 14.7916Z" fill="#0D9447"/>
<path fill-rule="evenodd" clip-rule="evenodd" d="M16.6667 1.875C15.4017 1.875 14.375 2.90167 14.375 4.16667C14.375 5.43167 15.4017 6.45833 16.6667 6.45833C17.9317 6.45833 18.9583 5.43167 18.9583 4.16667C18.9583 2.90167 17.9317 1.875 16.6667 1.875ZM16.6667 3.125C17.2417 3.125 17.7083 3.59167 17.7083 4.16667C17.7083 4.74167 17.2417 5.20833 16.6667 5.20833C16.0917 5.20833 15.625 4.74167 15.625 4.16667C15.625 3.59167 16.0917 3.125 16.6667 3.125Z" fill="#0D9447"/>
<path fill-rule="evenodd" clip-rule="evenodd" d="M16.6667 13.5416C15.4017 13.5416 14.375 14.5683 14.375 15.8333C14.375 17.0983 15.4017 18.125 16.6667 18.125C17.9317 18.125 18.9583 17.0983 18.9583 15.8333C18.9583 14.5683 17.9317 13.5416 16.6667 13.5416ZM16.6667 14.7916C17.2417 14.7916 17.7083 15.2583 17.7083 15.8333C17.7083 16.4083 17.2417 16.875 16.6667 16.875C16.0917 16.875 15.625 16.4083 15.625 15.8333C15.625 15.2583 16.0917 14.7916 16.6667 14.7916Z" fill="#0D9447"/>
<path fill-rule="evenodd" clip-rule="evenodd" d="M2.70833 5.83337V14.1667C2.70833 14.5117 2.98833 14.7917 3.33333 14.7917C3.67833 14.7917 3.95833 14.5117 3.95833 14.1667V5.83337C3.95833 5.48837 3.67833 5.20837 3.33333 5.20837C2.98833 5.20837 2.70833 5.48837 2.70833 5.83337Z" fill="#0D9447"/>
<path fill-rule="evenodd" clip-rule="evenodd" d="M9.375 5.83337V14.1667C9.375 14.5117 9.655 14.7917 10 14.7917C10.345 14.7917 10.625 14.5117 10.625 14.1667V5.83337C10.625 5.48837 10.345 5.20837 10 5.20837C9.655 5.20837 9.375 5.48837 9.375 5.83337Z" fill="#0D9447"/>
<path fill-rule="evenodd" clip-rule="evenodd" d="M16.0417 5.83337V9.16671C16.0417 9.28171 15.9483 9.37504 15.8333 9.37504H3.33333C2.98833 9.37504 2.70833 9.65504 2.70833 10C2.70833 10.345 2.98833 10.625 3.33333 10.625H15.8333C16.6392 10.625 17.2917 9.97171 17.2917 9.16671C17.2917 7.95087 17.2917 5.83337 17.2917 5.83337C17.2917 5.48837 17.0117 5.20837 16.6667 5.20837C16.3217 5.20837 16.0417 5.48837 16.0417 5.83337Z" fill="#0D9447"/>
</svg>
