<svg width="20" height="20" viewBox="0 0 20 20" fill="none" xmlns="http://www.w3.org/2000/svg">
<path fill-rule="evenodd" clip-rule="evenodd" d="M14.7032 8.10268C14.9338 8.33331 14.9338 8.7071 14.7032 8.93726L11.5181 12.1226C11.6126 12.3309 11.6653 12.5624 11.6653 12.8055C11.6653 13.7241 10.9184 14.4708 10 14.4708C9.08203 14.4708 8.33488 13.7241 8.33488 12.8055C8.33488 11.8875 9.08203 11.1401 10 11.1401C10.2435 11.1401 10.4745 11.1933 10.6833 11.2876L13.8682 8.10268C14.0988 7.87206 14.4726 7.87206 14.7032 8.10268ZM10 7.33519C10.6492 7.33519 11.2843 7.44769 11.887 7.66909C12.193 7.78163 12.5325 7.62472 12.645 7.31866C12.7571 7.01261 12.6005 6.67354 12.2944 6.56101C11.5605 6.2914 10.7886 6.15444 10 6.15444C6.33266 6.15444 3.34898 9.13811 3.34898 12.8055C3.34898 13.1317 3.61348 13.3959 3.93926 13.3959C4.26547 13.3959 4.52973 13.1317 4.52973 12.8055C4.52969 9.78944 6.98375 7.33519 10 7.33519ZM17.8555 14.7083C18.0054 14.0889 18.081 13.4487 18.081 12.8055C18.081 8.34999 14.4559 4.72444 10 4.72444C5.54434 4.72444 1.91918 8.35003 1.91918 12.8055C1.91918 13.4487 1.99504 14.0889 2.14488 14.7083C2.22676 15.0478 2.51652 15.2756 2.86547 15.2756H17.135C17.4839 15.2756 17.7737 15.0478 17.8555 14.7083ZM16.5492 6.25667C14.7999 4.50714 12.474 3.5437 10 3.5437C7.52621 3.5437 5.20055 4.5071 3.45121 6.25667C1.70188 8.00601 0.738243 10.3317 0.738243 12.8055C0.738243 13.5421 0.825274 14.2755 0.996915 14.9858C1.20609 15.8515 1.97445 16.4563 2.86543 16.4563H17.135C18.0255 16.4563 18.7939 15.8515 19.003 14.9858C19.1747 14.2751 19.2618 13.5417 19.2618 12.8055C19.2618 10.3317 18.2984 8.00604 16.5492 6.25667Z" fill="#0D9447"/>
</svg>
