<svg width="20" height="20" viewBox="0 0 20 20" fill="none" xmlns="http://www.w3.org/2000/svg">
<g clip-path="url(#clip0_22_181)">
<path d="M3.437 9.94764C3.437 10.3619 3.33828 10.7592 3.16256 11.0521C2.98684 11.345 2.74851 11.5096 2.5 11.5096C2.25149 11.5096 2.01315 11.345 1.83743 11.0521C1.66171 10.7592 1.56299 10.3619 1.56299 9.94764C1.56299 9.53337 1.66171 9.13603 1.83743 8.8431C2.01315 8.55016 2.25149 8.38562 2.5 8.38562C2.74851 8.38562 2.98684 8.55016 3.16256 8.8431C3.33828 9.13603 3.437 9.53337 3.437 9.94764Z" stroke="#0D9447" stroke-linecap="round" stroke-linejoin="round"/>
<path d="M18.437 7.58609C18.437 7.86126 18.3934 8.1315 18.3106 8.36955C18.2278 8.6076 18.1088 8.80501 17.9655 8.94172C17.8222 9.07831 17.6598 9.14933 17.4947 9.14767C17.3297 9.14601 17.1678 9.07173 17.0255 8.93227C16.8832 8.79293 16.7654 8.59332 16.6842 8.35376C16.603 8.1142 16.5612 7.84314 16.563 7.56799" stroke="#0D9447" stroke-linecap="round" stroke-linejoin="round"/>
<path d="M13.75 9.94764C13.75 10.3619 13.6513 10.7592 13.4755 11.0521C13.2998 11.345 13.0615 11.5096 12.813 11.5096C12.6899 11.5096 12.5681 11.4692 12.4544 11.3907C12.3407 11.3122 12.2374 11.1972 12.1504 11.0521C12.0634 10.9071 11.9944 10.7349 11.9473 10.5454C11.9002 10.3559 11.876 10.1528 11.876 9.94764C11.876 9.74251 11.9002 9.53939 11.9473 9.34988C11.9944 9.16037 12.0634 8.98814 12.1504 8.8431C12.2374 8.69805 12.3407 8.58299 12.4544 8.50449C12.5681 8.426 12.6899 8.38562 12.813 8.38562C13.0615 8.38562 13.2998 8.55016 13.4755 8.8431C13.6513 9.13603 13.75 9.53337 13.75 9.94764Z" stroke="#0D9447" stroke-linecap="round" stroke-linejoin="round"/>
<path d="M10.3125 9.94764C10.3125 10.3619 10.2138 10.7592 10.038 11.0521C9.86233 11.345 9.62399 11.5096 9.37548 11.5096C9.25244 11.5096 9.13059 11.4692 9.01691 11.3907C8.90322 11.3122 8.79993 11.1972 8.71292 11.0521C8.62591 10.9071 8.55689 10.7349 8.5098 10.5454C8.46271 10.3559 8.43848 10.1528 8.43848 9.94764C8.43848 9.74251 8.46271 9.53939 8.5098 9.34988C8.55689 9.16037 8.62591 8.98814 8.71292 8.8431C8.79993 8.69805 8.90322 8.58299 9.01691 8.50449C9.13059 8.426 9.25244 8.38562 9.37548 8.38562C9.62399 8.38562 9.86233 8.55016 10.038 8.8431C10.2138 9.13603 10.3125 9.53337 10.3125 9.94764Z" stroke="#0D9447" stroke-linecap="round" stroke-linejoin="round"/>
<path d="M6.87499 9.94764C6.87499 10.3619 6.77627 10.7592 6.60055 11.0521C6.42483 11.345 6.18649 11.5096 5.93798 11.5096C5.68947 11.5096 5.45114 11.345 5.27542 11.0521C5.0997 10.7592 5.00098 10.3619 5.00098 9.94764C5.00098 9.53337 5.0997 9.13603 5.27542 8.8431C5.45114 8.55016 5.68947 8.38562 5.93798 8.38562C6.18649 8.38562 6.42483 8.55016 6.60055 8.8431C6.77627 9.13603 6.87499 9.53337 6.87499 9.94764Z" stroke="#0D9447" stroke-linecap="round" stroke-linejoin="round"/>
<path d="M0.312988 7.4043H19.687V12.5972H0.312988V7.4043Z" stroke="#0D9447" stroke-linecap="round" stroke-linejoin="round"/>
<path d="M16.6477 12.5715C16.5601 12.252 16.5398 11.8926 16.5898 11.5515C16.6399 11.2103 16.7575 10.9072 16.9236 10.6911C17.0897 10.4751 17.2947 10.3588 17.5054 10.361C17.7161 10.3631 17.9202 10.4836 18.0848 10.7029C18.2494 10.9221 18.3649 11.2274 18.4127 11.5696C18.4604 11.9117 18.4376 12.2706 18.3479 12.5885" stroke="#0D9447" stroke-linecap="round" stroke-linejoin="round"/>
<path d="M15.3125 7.44775V12.604" stroke="#0D9447"/>
</g>
<defs>
<clipPath id="clip0_22_181">
<rect width="20" height="20" fill="white"/>
</clipPath>
</defs>
</svg>
