<svg width="20" height="20" viewBox="0 0 20 20" fill="none" xmlns="http://www.w3.org/2000/svg">
<path d="M2.22229 4.62579V8.71332C2.22168 13.0474 4.93958 17.0056 8.98621 18.562C9.31274 18.6877 9.65637 18.7499 10 18.7499C10.3436 18.7499 10.6873 18.6871 11.0144 18.562L11.6211 18.3282C15.3613 16.8896 17.7783 13.2714 17.7777 9.11127V4.62579C17.7777 4.2901 17.5122 4.01422 17.1771 4.0014C14.9304 3.91412 12.6398 3.0285 10.3687 1.37018C10.1489 1.21027 9.85107 1.21027 9.63135 1.37018C7.35962 3.0285 5.06897 3.91412 2.82288 4.0014C2.48779 4.01422 2.22229 4.2901 2.22229 4.62579ZM3.47229 5.21051C5.65002 5.00482 7.84119 4.14301 10 2.64215C12.1582 4.14301 14.35 5.00482 16.5277 5.21051V9.11127C16.5283 12.7502 14.4263 15.91 11.1719 17.1612L10.5658 17.395C10.2008 17.5353 9.79858 17.5353 9.43481 17.395C5.86792 16.0229 3.47168 12.5341 3.47229 8.71332V5.21051Z" fill="#0D9447"/>
<path d="M8.72009 12.5818C8.83728 12.699 8.99597 12.7649 9.16199 12.7649C9.328 12.7649 9.48669 12.699 9.60388 12.5818L13.4912 8.69446C13.7354 8.45032 13.7354 8.05481 13.4912 7.81067C13.2471 7.56653 12.8516 7.56653 12.6074 7.81067L9.16199 11.2561L7.39258 9.48608C7.14843 9.24194 6.75293 9.24194 6.50879 9.48608C6.26465 9.73022 6.26465 10.1257 6.50879 10.3699L8.72009 12.5818Z" fill="#0D9447"/>
</svg>
