<svg width="150" height="50" viewBox="0 0 150 50" fill="none" xmlns="http://www.w3.org/2000/svg">
<rect width="150" height="50" transform="matrix(1 0 0 -1 0 50)" fill="#08AE60"/>
<g clip-path="url(#clip0_53_46)">
<path d="M53.3024 10.7966H56.219C58.9533 10.7966 60.8901 12.3925 60.8901 14.6514C60.8901 16.9103 58.9533 18.5173 56.219 18.5173H53.3024V10.7966ZM56.5836 16.5394C57.7684 16.5394 58.6115 15.7527 58.6115 14.6514C58.6115 13.55 57.7684 12.7746 56.5836 12.7746H55.5126V16.5394H56.5836Z" fill="white"/>
<path d="M62.0067 10.7966H64.217V18.5173H62.0067V10.7966Z" fill="white"/>
<path d="M69.2071 13.9996H72.8756V17.2812C72.0667 18.1466 70.8704 18.6523 69.64 18.6523C67.293 18.6523 65.322 16.8205 65.322 14.6515C65.322 12.4825 67.293 10.6619 69.64 10.6619C70.8704 10.6619 72.0667 11.1676 72.8756 12.0217L71.2464 13.4265C70.8591 12.932 70.2666 12.6398 69.64 12.6398C68.5349 12.6398 67.6006 13.5613 67.6006 14.6515C67.6006 15.7416 68.5349 16.6744 69.64 16.6744C70.0274 16.6744 70.4033 16.562 70.7337 16.3597V15.6067H69.2071V13.9996Z" fill="white"/>
<path d="M74.1061 10.7966H76.3163V18.5173H74.1061V10.7966Z" fill="white"/>
<path d="M79.6089 12.7409H77.2961V10.7966H84.132V12.7409H81.8192V18.5173H79.6089V12.7409Z" fill="white"/>
<path d="M89.5551 17.4834H86.8322L86.4334 18.5173H83.9384L86.9461 10.7966H89.4412L92.449 18.5173H89.9539L89.5551 17.4834ZM88.9285 15.8763L88.1994 13.9995L87.4588 15.8763H88.9285Z" fill="white"/>
<path d="M99 16.5731V18.5173H93.1439V10.7966H95.3542V16.5731H99Z" fill="white"/>
<path d="M52.71 27.7197L53.9404 26.27C54.7379 26.8881 55.6038 27.214 56.5266 27.214C57.1305 27.214 57.4495 27.0117 57.4495 26.6746C57.4495 26.3037 57.176 26.2475 56.0937 26.0003C54.3961 25.6182 53.0859 25.1799 53.0859 23.5728C53.0859 21.9657 54.3164 21.033 56.1734 21.033C57.5292 21.033 58.5888 21.3926 59.4547 22.0781L58.3495 23.6178C57.6204 23.1008 56.8229 22.8423 56.1165 22.8423C55.581 22.8423 55.319 23.0559 55.319 23.348C55.319 23.7414 55.5924 23.865 56.7089 24.101C58.5318 24.4831 59.6711 24.9664 59.6711 26.4386C59.6711 28.0681 58.4065 29.0234 56.4469 29.0234C55.0341 29.0234 53.7012 28.5851 52.71 27.7197Z" fill="white"/>
<path d="M62.8726 23.1119V23.9773H66.5981V25.9215H62.8726V26.9442H66.9627V28.8884H60.6624V21.1677H66.9627V23.1119H62.8726Z" fill="white"/>
<path d="M70.2895 23.1119V23.9773H74.015V25.9215H70.2895V26.9442H74.3796V28.8884H68.0792V21.1677H74.3796V23.1119H70.2895Z" fill="white"/>
<path d="M75.4961 21.1677H78.4127C81.147 21.1677 83.0839 22.7636 83.0839 25.0225C83.0839 27.2814 81.147 28.8884 78.4127 28.8884H75.4961V21.1677ZM78.7773 26.9105C79.9622 26.9105 80.8053 26.1238 80.8053 25.0225C80.8053 23.9211 79.9622 23.1457 78.7773 23.1457H77.7063V26.9105H78.7773Z" fill="white"/>
<path d="M52.71 38.0347L53.9404 36.5849C54.7379 37.203 55.6038 37.529 56.5266 37.529C57.1305 37.529 57.4495 37.3267 57.4495 36.9895C57.4495 36.6187 57.176 36.5625 56.0937 36.3152C54.3961 35.9331 53.0859 35.4948 53.0859 33.8878C53.0859 32.2807 54.3164 31.3479 56.1734 31.3479C57.5292 31.3479 58.5888 31.7075 59.4547 32.3931L58.3495 33.9327C57.6204 33.4157 56.8229 33.1573 56.1165 33.1573C55.581 33.1573 55.319 33.3708 55.319 33.663C55.319 34.0563 55.5924 34.1799 56.7089 34.416C58.5318 34.7981 59.6711 35.2813 59.6711 36.7535C59.6711 38.3831 58.4065 39.3383 56.4469 39.3383C55.0341 39.3383 53.7012 38.9 52.71 38.0347Z" fill="white"/>
<path d="M62.5535 33.4269H60.2407V31.4827H67.0766V33.4269H64.7638V39.2034H62.5535V33.4269Z" fill="white"/>
<path d="M67.9425 35.7757V31.4827H70.1528V35.6633C70.1528 36.6523 70.7794 37.3603 71.668 37.3603C72.5567 37.3603 73.1833 36.6523 73.1833 35.6633V31.4827H75.3936V35.7757C75.3936 37.866 73.8555 39.3382 71.668 39.3382C69.4806 39.3382 67.9425 37.866 67.9425 35.7757Z" fill="white"/>
<path d="M76.6809 31.4827H79.5975C82.3319 31.4827 84.2687 33.0785 84.2687 35.3374C84.2687 37.5963 82.3319 39.2034 79.5975 39.2034H76.6809V31.4827ZM79.9621 37.2254C81.147 37.2254 81.9901 36.4388 81.9901 35.3374C81.9901 34.236 81.147 33.4606 79.9621 33.4606H78.8912V37.2254H79.9621Z" fill="white"/>
<path d="M85.3853 31.4827H87.5955V39.2034H85.3853V31.4827Z" fill="white"/>
<path d="M88.7007 35.3375C88.7007 33.1685 90.6489 31.3479 92.9617 31.3479C95.2745 31.3479 97.2227 33.1685 97.2227 35.3375C97.2227 37.5065 95.2745 39.3383 92.9617 39.3383C90.6489 39.3383 88.7007 37.5065 88.7007 35.3375ZM94.9441 35.3375C94.9441 34.2474 94.0326 33.3258 92.9617 33.3258C91.8907 33.3258 90.9793 34.2474 90.9793 35.3375C90.9793 36.4276 91.8907 37.3604 92.9617 37.3604C94.0326 37.3604 94.9441 36.4388 94.9441 35.3375Z" fill="white"/>
<path d="M38.3604 15.2001C36.8774 15.2001 35.4096 15.4755 34.0387 16.0187C32.6696 16.56 31.424 17.3542 30.3758 18.3562L29.9884 18.7271L29.9011 18.2008C29.4435 15.4624 27.9795 12.9693 25.773 11.1675C23.5646 9.3656 20.7563 8.37476 17.8529 8.37476H11V13.2147C11 16.3052 12.2836 19.2722 14.5698 21.4617C16.8579 23.6513 19.9625 24.8819 23.2001 24.8819H27.0509V36.4124C25.8641 36.9668 25.0419 38.1581 25.0419 39.5385C25.0419 41.4509 26.6142 43.0018 28.5529 43.0018C30.4916 43.0018 32.0639 41.4509 32.0639 39.5385C32.0639 38.1562 31.2417 36.9668 30.053 36.4124V30.001H34.7944C37.7965 30.001 40.6732 28.8603 42.7942 26.8318C44.9133 24.8033 46.1039 22.0536 46.1039 19.1897V15.202H38.3623L38.3604 15.2001ZM26.768 22.0255H23.202C20.7639 22.0255 18.4245 21.0984 16.7003 19.4482C14.9743 17.7962 14.0021 15.5542 14.0021 13.2147V11.2293H17.8529C20.291 11.2293 22.6304 12.1564 24.3565 13.8066C26.0825 15.4586 27.0547 17.7007 27.0547 20.0401V22.0255H26.7718H26.768ZM43.1018 18.3338V19.1879C43.1018 21.3007 42.2246 23.3273 40.6656 24.8183C39.1067 26.3092 36.9952 27.1465 34.7944 27.1465H30.053V26.0133C30.053 23.9005 30.9303 21.8738 32.4892 20.3829C34.0482 18.8919 36.1597 18.0547 38.3604 18.0547H43.1018V18.3338Z" fill="white"/>
<path d="M27.1136 9.56608C27.2142 9.64849 27.3073 9.73465 27.406 9.81894C27.7839 9.78897 28.1655 9.77024 28.5529 9.77024C32.098 9.77024 35.3489 11.0364 37.8667 13.1324C38.0262 13.1267 38.1857 13.1211 38.3471 13.1211H41.8125C38.6434 9.38065 33.8792 7 28.551 7C26.9598 7 25.4217 7.21727 23.9596 7.61249C25.0875 8.12383 26.1509 8.77752 27.1136 9.5642V9.56608Z" fill="white"/>
<path d="M44.2602 28.3209C43.4323 29.1132 42.5132 29.7875 41.5296 30.3381C39.9536 33.483 37.2364 35.976 33.9153 37.289C34.2134 37.9802 34.3786 38.7406 34.3786 39.5386C34.3786 39.7259 34.3691 39.9113 34.3501 40.093C40.1796 38.0439 44.5659 32.9922 45.5951 26.8262C45.1925 27.3544 44.7463 27.8563 44.2602 28.3209Z" fill="white"/>
<path d="M14.0856 24.039C14.0856 23.9622 14.0894 23.8873 14.0913 23.8105C13.7514 23.5389 13.421 23.2542 13.1039 22.9508C12.5229 22.3945 11.9988 21.7895 11.5298 21.1489C11.3665 22.0892 11.2772 23.0538 11.2772 24.039C11.2772 31.4432 16.0661 37.7404 22.7519 40.0911C22.7348 39.9075 22.7235 39.724 22.7235 39.5366C22.7235 38.7387 22.8886 37.9783 23.1868 37.2871C17.8586 35.1799 14.0837 30.0384 14.0837 24.039H14.0856Z" fill="white"/>
</g>
<defs>
<clipPath id="clip0_53_46">
<rect width="88" height="36" fill="white" transform="translate(11 7)"/>
</clipPath>
</defs>
</svg>
